<svg width="186" height="64" viewBox="0 0 186 64" fill="none" xmlns="http://www.w3.org/2000/svg">
<path d="M164.507 63.6382C162.139 63.977 157.657 63.0453 156.22 61.0973C155.374 59.9116 155.205 58.2177 155.205 56.6931C155.036 53.1359 155.205 49.5787 155.205 45.9368C155.205 38.3141 154.528 30.6068 155.459 23.0689C156.135 17.5636 158.249 11.889 161.885 7.82361C163.323 6.29908 165.437 5.28273 167.551 4.94395C171.102 4.43577 174.908 4.43577 178.206 5.70621C178.29 5.70621 178.375 5.70621 178.375 5.70621C180.235 5.9603 182.265 6.46847 183.702 7.65422C184.548 8.24709 185.309 9.09405 185.732 10.0257C186.577 12.2278 185.309 16.2085 183.533 17.9024C182.603 18.7494 181.165 19.1729 179.897 19.0882C177.529 18.9188 175.415 17.8177 173.132 17.3095C172.54 17.2249 171.948 17.1402 171.441 17.3095C170.426 17.6483 169.496 18.4106 168.988 19.3423C168.481 20.1045 168.227 20.9515 168.143 21.8831C167.974 22.7301 167.974 24.3393 168.65 24.7628C170.172 25.6097 176.514 24.3393 178.206 24.424C179.305 24.5087 180.489 24.9322 181.334 25.6097C182.011 26.2026 182.518 27.0496 182.772 27.8965C183.448 30.0139 182.856 32.9783 181.165 34.5028C180.066 35.6039 178.375 36.0273 176.853 36.2814C174.485 36.7049 172.033 36.4508 169.58 36.6202C169.242 36.6202 168.481 36.7049 168.312 36.959C167.805 37.8907 168.227 41.2785 168.312 42.2948C168.566 44.0735 170.003 53.8135 170.088 55.5074C170.088 57.286 169.919 59.1493 169.073 60.6738C168.143 62.1984 166.282 63.2994 164.507 63.6382Z" fill="#222222"/>
<path d="M133.058 62.8755C130.268 63.299 127.054 62.5367 124.687 60.9275C123.249 59.9958 122.234 58.6407 121.135 57.3703C121.051 57.2856 120.881 57.1162 120.797 57.1162C120.628 57.1162 120.374 57.2856 120.29 57.3703C118.852 58.3866 117.414 59.4877 115.808 60.3346C113.102 61.7744 110.058 62.7061 107.013 62.8755C103.885 62.9602 100.418 61.7744 98.2189 59.4877C96.8659 58.0478 95.7666 56.1845 95.2593 54.2365C94.0754 50.4252 94.4982 46.021 96.0203 42.2944C96.6968 40.5158 97.9652 38.9065 99.4028 37.6361C101.009 36.281 103.124 35.3493 105.153 34.8411C108.535 33.9095 112.087 33.9095 115.554 33.2319C116.231 33.1472 118.006 32.7238 118.429 32.1309C118.683 31.6227 118.429 30.1829 118.26 29.6747C118.006 28.5737 117.584 27.3879 116.738 26.7103C115.977 26.2022 114.793 26.2022 113.863 26.3716C110.311 27.0491 107.098 28.9124 103.631 29.6747C102.362 29.9288 101.009 30.0135 99.8256 29.59C97.5424 28.743 95.7666 25.1011 95.7666 22.7296C95.8512 20.4428 96.6968 18.1561 98.0498 16.2928C99.1491 14.8529 100.671 13.8366 102.278 12.9049C107.267 9.94056 113.947 8.92421 119.528 10.5334C123.418 11.5498 127.646 13.5825 129.93 16.9703C131.621 19.5112 132.297 22.7296 132.72 25.7787C133.312 30.0135 133.143 34.4177 132.889 38.7372C132.72 40.5158 132.889 42.3791 133.143 44.1577C133.397 46.1904 133.819 48.3925 135.088 50.0864C135.933 51.2722 137.202 52.2038 137.963 53.5589C139.908 57.5396 137.456 62.1979 133.058 62.8755ZM108.366 46.1057C106.083 48.6466 108.874 51.9497 112.002 50.5946C113.355 50.0017 114.37 48.9007 115.216 47.7149C116.484 45.8516 117.668 43.8189 118.26 41.7015C116.146 42.4638 113.863 42.5485 111.918 43.5648C110.565 44.1577 109.297 45.0047 108.366 46.1057Z" fill="#222222"/>
<path d="M74.9099 13.5192C72.7113 16.7377 67.2994 17.4999 63.8324 15.7213C62.5639 15.1285 61.2955 14.0274 60.7036 12.6723C60.2808 11.91 59.6043 8.94565 59.6043 8.09869C59.6043 7.16704 59.7734 6.32008 60.0271 5.38842C61.2109 0.984238 66.2001 -0.879073 70.6818 0.391369C76.2629 1.91589 78.2078 8.77626 74.9099 13.5192ZM74.4026 61.6265C71.2738 65.4378 65.439 64.4215 62.6485 60.2714C61.2109 57.9846 60.4499 55.2743 60.0271 52.6487C59.4352 49.2609 59.3506 45.7884 59.3506 42.3158C59.3506 39.1821 59.5197 35.9636 59.9425 32.8299C60.2808 30.1196 60.8727 27.0706 62.8176 25.1226C64.8471 23.0052 69.2443 21.9888 71.7811 23.4286C72.2885 23.7674 72.7959 24.1909 73.1341 24.6991C74.9945 26.9012 76.0092 29.8655 76.5166 32.7452C77.1931 36.8106 76.7703 40.9607 76.9394 45.0261C77.1931 48.5833 77.3622 52.1406 76.7703 55.6131C76.3475 57.7305 75.7555 59.9326 74.4026 61.6265Z" fill="#222222"/>
<path d="M13.6172 61.3724C11.0804 63.4051 6.00667 63.3204 3.3007 61.4571C2.03227 60.5254 1.1021 59.0009 0.679289 57.4764C-0.0817663 54.9355 0.00279543 52.3099 0.00279543 49.6843C0.0873569 45.1108 1.86315 17.6693 2.03227 13.0957C2.11684 10.4701 1.60947 7.75987 2.2014 5.219C2.37052 4.20265 2.96245 3.1016 3.80807 2.50873C5.07649 1.66177 6.5986 1.23829 8.03615 0.984203C10.2348 0.645419 12.4334 0.730113 14.632 0.730113C17.5916 0.814813 20.5513 0.899508 23.5109 1.1536C27.3162 1.49238 31.1215 2.67812 34.3348 4.71082C36.8717 6.23535 38.9011 8.77622 40.1696 11.4018C42.7064 16.6529 43.2983 23.0898 42.1145 28.8492C41.2689 33.4227 37.8864 37.7422 33.8274 40.1137C30.1913 42.2311 25.7941 43.1628 21.4814 43.2475C19.7057 43.2475 17.9299 42.9934 16.2386 42.6546C16.3232 46.6353 16.4923 50.5313 16.2386 54.4273C16.0695 56.8835 15.4776 59.7632 13.6172 61.3724ZM15.4776 29.3573C20.4667 30.0349 27.739 28.6798 29.2611 23.9368C29.853 22.2429 29.9376 20.2949 29.4302 18.6009C29.0074 17.1611 28.1618 15.7213 26.978 14.7896C25.7095 13.6039 23.9337 13.011 22.2425 12.6722C19.9593 12.2488 17.6762 12.1641 15.393 12.2488C15.4776 17.9234 15.5621 23.6827 15.4776 29.3573Z" fill="#222222"/>
</svg>
