<svg width="201" height="79" viewBox="0 0 201 79" fill="none" xmlns="http://www.w3.org/2000/svg">
<path d="M176.911 69.744C174.3 70.117 169.358 69.0912 167.772 66.9465C166.84 65.641 166.653 63.776 166.653 62.0976C166.467 58.1811 166.653 54.2647 166.653 50.255C166.653 41.8626 165.907 33.3769 166.933 25.0778C167.679 19.0166 170.01 12.7689 174.02 8.29296C175.605 6.61448 177.936 5.49549 180.268 5.12249C184.184 4.563 188.38 4.563 192.017 5.96173C192.11 5.96173 192.204 5.96173 192.204 5.96173C194.255 6.24148 196.493 6.80097 198.078 8.10646C199.011 8.7592 199.85 9.69169 200.316 10.7174C201.249 13.1419 199.85 17.5246 197.892 19.3896C196.866 20.3221 195.281 20.7883 193.882 20.6951C191.271 20.5086 188.94 19.2963 186.422 18.7368C185.769 18.6436 185.117 18.5503 184.557 18.7368C183.438 19.1098 182.412 19.9491 181.853 20.9748C181.293 21.814 181.014 22.7465 180.92 23.7723C180.734 24.7048 180.734 26.4765 181.48 26.9427C183.158 27.8752 190.152 26.4765 192.017 26.5697C193.229 26.663 194.535 27.1292 195.467 27.8752C196.213 28.528 196.773 29.4605 197.052 30.3929C197.798 32.7242 197.146 35.9879 195.281 37.6664C194.068 38.8786 192.204 39.3448 190.525 39.6246C187.914 40.0908 185.21 39.8111 182.506 39.9976C182.133 39.9976 181.293 40.0908 181.107 40.3706C180.547 41.3963 181.014 45.1263 181.107 46.2453C181.387 48.2035 182.972 58.9271 183.065 60.7921C183.065 62.7503 182.879 64.8018 181.946 66.4803C180.92 68.1587 178.869 69.371 176.911 69.744Z" fill="white"/>
<path d="M127.166 65.486C126.731 65.5473 126.689 65.6437 126.751 66.0226C127.154 68.606 126.776 71.4431 124.174 72.6166C123.35 72.994 122.472 73.1992 121.593 73.37C120.549 73.568 119.511 73.7247 119.053 74.8398C118.108 77.1042 120.654 76.7158 121.989 76.6284C124.043 76.5009 126.465 75.8574 128.12 74.6273C129.193 73.8232 129.582 72.591 129.605 71.3099C129.628 69.7465 130.012 68.0666 130.291 66.5449C130.374 66.0974 130.666 65.5331 130.577 65.0646C129.968 65.2082 129.366 65.407 128.743 65.523C128.197 65.6255 127.727 65.4181 127.166 65.486ZM137.68 73.0656C138.188 71.1311 137.935 68.9956 137.551 67.0527C137.483 66.7151 137.4 66.3774 137.332 66.0398C137.263 65.7505 137.187 65.4748 137.146 65.1855C137.078 64.6757 136.643 64.5166 136.207 64.5916C135.868 64.6462 135.515 64.6525 135.169 64.6933C134.81 64.734 134.18 64.7398 133.938 65.0494C133.744 65.2832 134.02 65.6212 134.075 65.8692C134.15 66.2275 134.233 66.5996 134.273 66.9578C134.348 67.7086 134.347 68.4663 134.27 69.2237C134.108 70.7663 133.601 72.2532 132.997 73.6779C132.587 74.6208 131.887 75.4393 131.506 76.3753C130.728 78.2681 134.407 78.2259 135.39 77.9107C136.497 77.5406 136.768 76.4666 136.991 75.4614C137.179 74.6627 137.464 73.8642 137.68 73.0656Z" fill="#FFC053"/>
<path d="M144.763 69.7852C141.941 70.2126 138.693 69.4432 136.299 67.8189C134.846 66.8785 133.82 65.5107 132.709 64.2283C132.623 64.1428 132.452 63.9719 132.367 63.9719C132.196 63.9719 131.939 64.1428 131.854 64.2283C130.4 65.2542 128.947 66.3656 127.323 67.2205C124.587 68.6738 121.509 69.6142 118.432 69.7852C115.269 69.8707 111.763 68.6738 109.541 66.3656C108.173 64.9122 107.061 63.0315 106.549 61.0652C105.352 57.2181 105.779 52.7726 107.318 49.011C108.002 47.2158 109.284 45.5914 110.738 44.3091C112.362 42.9412 114.499 42.0008 116.551 41.4879C119.97 40.5475 123.561 40.5475 127.066 39.8636C127.75 39.7781 129.545 39.3506 129.973 38.7522C130.229 38.2393 129.973 36.7859 129.802 36.273C129.545 35.1616 129.118 33.9648 128.263 33.2808C127.494 32.7679 126.297 32.7679 125.356 32.9389C121.766 33.6228 118.517 35.5036 115.012 36.273C113.73 36.5295 112.362 36.615 111.165 36.1875C108.857 35.3326 107.061 31.6565 107.061 29.2628C107.147 26.9546 108.002 24.6463 109.37 22.7655C110.481 21.3122 112.02 20.2863 113.644 19.3459C118.688 16.3538 125.442 15.3279 131.084 16.9522C135.017 17.9781 139.291 20.0298 141.6 23.4495C143.309 26.0142 143.993 29.2628 144.421 32.3404C145.019 36.615 144.848 41.0604 144.592 45.4205C144.421 47.2158 144.592 49.0965 144.848 50.8918C145.105 52.9436 145.532 55.1664 146.814 56.8762C147.669 58.073 148.952 59.0134 149.721 60.3813C151.687 64.3993 149.208 69.1013 144.763 69.7852ZM119.799 52.8581C117.491 55.4228 120.312 58.7569 123.476 57.3891C124.843 56.7907 125.869 55.6793 126.724 54.4824C128.007 52.6016 129.203 50.5499 129.802 48.4126C127.665 49.182 125.356 49.2675 123.39 50.2934C122.022 50.8918 120.74 51.7467 119.799 52.8581Z" fill="white"/>
<path d="M85.8107 67.2244C82.3605 71.4206 75.9263 70.3017 72.8491 65.7325C71.2639 63.2147 70.4246 60.2308 69.9584 57.3401C69.3057 53.6101 69.2124 49.7869 69.2124 45.9637C69.2124 42.5135 69.3989 38.97 69.8651 35.5198C70.2381 32.5359 70.8909 29.1789 73.0356 27.0342C75.2736 24.7029 80.1225 23.584 82.92 25.1692C83.4795 25.5422 84.039 26.0084 84.412 26.5679C86.4634 28.9924 87.5824 32.2561 88.1419 35.4266C88.8879 39.9025 88.4217 44.4717 88.6082 48.9477C88.8879 52.8641 89.0744 56.7806 88.4217 60.6038C87.9554 62.935 87.3027 65.3595 85.8107 67.2244Z" fill="white"/>
<path d="M74.1541 17.3089C77.9773 19.2672 83.9453 18.4279 86.3697 14.8845C90.0065 9.66253 87.8617 2.10937 81.7073 0.430892C76.7651 -0.967846 71.2634 1.08363 69.9579 5.93257C69.6782 6.95831 69.4917 7.8908 69.4917 8.91654C69.4917 9.84902 70.2377 13.1127 70.7039 13.952C71.3567 15.444 72.7554 16.6562 74.1541 17.3089Z" fill="#FFC053"/>
<path d="M22.2309 5.69041C24.6684 4.70434 29.4277 4.13409 33.5727 4.69919C37.7176 5.26442 40.8903 6.54431 44.4477 9.42771C48.0052 12.3114 50.7011 17.4341 51.4233 20.8984C52.1453 24.3627 52.7603 32.8316 51.4233 36.501C50.0861 40.17 47.9726 43.2895 44.8979 45.457C41.8231 47.6244 38.1933 48.2296 34.06 48.3808C29.9267 48.5319 24.5589 47.052 22.6528 46.3476C22.5553 50.9281 22.1727 56.3636 21.6899 60.8301C21.3748 63.6453 20.3559 66.921 18.1352 68.6797C15.1144 70.8917 8.60185 69.0094 6.86271 68.708C5.12301 68.4064 0.547348 67.2389 0.135174 65.4658C-0.616408 62.5076 1.97262 59.6592 2.95256 54.6269C3.93259 49.5941 6.74421 33.9007 7.31486 27.6758C7.88552 21.451 8.91961 17.8434 12.3774 13.2558C15.835 8.66849 19.7932 6.6766 22.2309 5.69041ZM20.7045 42.5449C20.3039 41.7159 19.7957 42.6013 19.6811 43.0254C18.4142 47.7715 15.2036 52.0008 10.8129 54.2959C9.49817 54.9788 8.12016 55.5406 6.69279 55.9424C6.34072 56.0418 5.78424 56.2691 5.09709 56.5703C6.7398 57.5427 8.30021 57.9795 8.30021 57.9795C8.9541 57.7761 9.59454 57.4877 10.1254 57.251C12.9431 55.9721 15.3828 53.9914 17.2074 51.5C18.2956 50.0178 19.2908 48.447 19.9809 46.7392C20.3302 45.8516 20.6201 44.9045 20.7621 43.9629C20.826 43.5258 20.9072 42.9652 20.7045 42.5449ZM33.8158 22.9785C32.6389 21.8853 30.895 22.0632 29.9106 23.3867C28.9191 24.7169 29.0669 26.691 30.2289 27.7978C31.4055 28.898 33.1496 28.7195 34.141 27.3965C35.1257 26.0659 34.9781 24.0853 33.8158 22.9785Z" fill="white"/>
<path d="M47.6155 25.0753C48.3245 25.0395 49.1054 25.563 49.686 25.9128C50.6598 26.5086 51.5788 27.2102 52.4317 27.9716C53.2423 28.689 54.0335 29.4626 54.6382 30.3596C55.2479 31.217 55.7224 32.045 54.6247 32.6501C53.4892 33.2736 52.198 33.3674 50.9402 33.5998C49.6442 33.8429 48.337 34.0398 47.0269 34.1977C45.9257 34.3247 44.602 34.6169 43.5169 34.3193C42.8148 34.1272 42.9712 33.4808 43.0248 32.928C43.1215 32.1055 43.4967 31.3491 43.7606 30.5694C44.3068 28.938 45.3887 25.3154 47.4988 25.0837L47.6155 25.0753Z" fill="#FFC053"/>
</svg>
